<svg width="44" height="44" viewBox="0 0 44 44" fill="none" xmlns="http://www.w3.org/2000/svg">
<g clip-path="url(#clip0_11_988)">
<path d="M0 8C0 3.58172 3.58172 0 8 0H36C40.4183 0 44 3.58172 44 8V36C44 40.4183 40.4183 44 36 44H8C3.58172 44 0 40.4183 0 36V8Z" fill="black"/>
<path fill-rule="evenodd" clip-rule="evenodd" d="M18.8399 18.66C18.3999 16.856 17.1899 15.844 15.2099 15.844C12.5259 15.844 11.0739 17.912 11.0739 21.344C11.0739 24.776 12.5699 26.756 15.1879 26.756C17.3219 26.756 18.4659 25.634 18.9059 23.588C18.9279 23.412 19.0819 23.302 19.2359 23.302H22.0079C22.1619 23.302 22.2719 23.434 22.2279 23.588C21.3699 27.724 18.8619 29.33 15.2759 29.33C10.5459 29.33 7.6199 26.052 7.6199 21.366C7.6199 16.46 10.6119 13.27 15.2539 13.27C18.5539 13.27 21.2159 14.612 22.1179 18.66C22.1619 18.814 22.0519 18.946 21.8979 18.946H19.1919C19.0379 18.946 18.8839 18.836 18.8399 18.66ZM22.9547 19.3561C22.7356 19.7123 22.3357 19.946 21.8979 19.946H19.1919C18.5771 19.946 18.0246 19.5218 17.8698 18.9025L17.8684 18.897C17.6885 18.1594 17.3744 17.6702 16.9821 17.3598C16.5907 17.0503 16.027 16.844 15.2099 16.844C14.1575 16.844 13.4339 17.2319 12.9399 17.901C12.4142 18.6129 12.0739 19.7489 12.0739 21.344C12.0739 22.9333 12.4228 24.0435 12.9457 24.7325C13.4394 25.383 14.1598 25.756 15.1879 25.756C16.074 25.756 16.6376 25.5273 17.0205 25.1894C17.4116 24.8444 17.7291 24.2841 17.922 23.4066C18.0396 22.7011 18.6611 22.302 19.2359 22.302H22.0079C22.3873 22.302 22.7383 22.4775 22.9677 22.7562L23.0066 21.3L22.9547 19.3561ZM22.9113 17.7298C22.3726 15.8839 21.4366 14.5309 20.1623 13.6304C18.7469 12.6301 17.0296 12.27 15.2539 12.27C12.6946 12.27 10.5095 13.1556 8.96808 14.7928C7.43248 16.4237 6.6199 18.7103 6.6199 21.366C6.6199 23.9165 7.41872 26.1681 8.946 27.7907C10.48 29.4203 12.6694 30.33 15.2759 30.33C17.2126 30.33 18.9771 29.8959 20.3883 28.7998C21.5498 27.8976 22.389 26.6115 22.9092 24.9477L22.809 28.7007V28.714C22.809 29.4203 23.3887 30 24.095 30H30.783C32.3849 30 34.0531 29.6446 35.3516 28.7436C36.6967 27.8102 37.569 26.3383 37.569 24.336C37.569 23.2838 37.2513 22.2838 36.571 21.4718C36.3373 21.1928 36.0678 20.9444 35.7656 20.7275C35.9329 20.5809 36.0886 20.4204 36.2312 20.245C36.8571 19.475 37.151 18.5125 37.151 17.406C37.151 15.7256 36.3868 14.4585 35.1271 13.6601C33.9268 12.8994 32.342 12.6 30.673 12.6H24.095C23.3887 12.6 22.809 13.1797 22.809 13.886V13.8994L22.9113 17.7298ZM34.8675 21.337C34.4764 21.1108 34.0171 20.934 33.489 20.816C34.0024 20.6626 34.4492 20.4587 34.8225 20.1976C35.6808 19.5971 36.151 18.6939 36.151 17.406C36.151 14.744 33.819 13.6 30.673 13.6H24.095C23.941 13.6 23.809 13.732 23.809 13.886L24.007 21.3L23.809 28.714C23.809 28.868 23.941 29 24.095 29H30.783C33.731 29 36.569 27.68 36.569 24.336C36.569 23.0746 36.0079 21.9962 34.8675 21.337ZM28.2626 16.932L28.1775 18.804H30.717C31.2081 18.804 31.462 18.6791 31.5826 18.5714C31.6857 18.4793 31.807 18.2982 31.807 17.89C31.807 17.4588 31.669 17.2671 31.5475 17.165C31.399 17.0401 31.1297 16.932 30.717 16.932H28.2626ZM30.717 19.804C32.015 19.804 32.807 19.144 32.807 17.89C32.807 16.526 31.861 15.932 30.717 15.932H27.307L27.131 19.804H30.717ZM27.131 22.136L27.307 26.668H30.717C32.103 26.668 33.181 26.14 33.181 24.336C33.181 22.708 32.059 22.136 30.717 22.136H27.131ZM28.1706 23.136L28.2689 25.668H30.717C31.3123 25.668 31.6561 25.5494 31.8405 25.4005C31.9824 25.2859 32.181 25.0319 32.181 24.336C32.181 23.7755 32.0027 23.5419 31.8406 23.4167C31.6342 23.2571 31.2689 23.136 30.717 23.136H28.1706Z" fill="url(#paint0_linear_11_988)"/>
</g>
<defs>
<linearGradient id="paint0_linear_11_988" x1="22.0944" y1="12.27" x2="22.0944" y2="30.33" gradientUnits="userSpaceOnUse">
<stop stop-color="#50F4FF"/>
<stop offset="1" stop-color="#FF93FB"/>
</linearGradient>
<clipPath id="clip0_11_988">
<rect width="44" height="44" fill="white"/>
</clipPath>
</defs>
</svg>
