<svg width="18" height="18" viewBox="0 0 18 18" fill="none" xmlns="http://www.w3.org/2000/svg">
<path fill-rule="evenodd" clip-rule="evenodd" d="M7.74359 9.41001C7.67359 9.41001 7.60359 9.46001 7.59359 9.54001C7.39359 10.47 6.87359 10.98 5.90359 10.98C4.71359 10.98 4.03359 10.08 4.03359 8.52001C4.03359 6.96001 4.69359 6.02001 5.91359 6.02001C6.81359 6.02001 7.36359 6.48001 7.56359 7.30001C7.58359 7.38001 7.65359 7.43001 7.72359 7.43001H8.95359C9.02359 7.43001 9.07359 7.37001 9.05359 7.30001C9.02429 7.16848 8.99089 7.04324 8.95359 6.92405C8.92555 6.83443 8.89529 6.74823 8.86291 6.66536C8.83373 6.59068 8.80283 6.51871 8.77025 6.44937C8.76721 6.44289 8.76415 6.43644 8.76108 6.43001C8.20314 5.26197 7.16629 4.85001 5.93359 4.85001C3.82359 4.85001 2.46359 6.30001 2.46359 8.53001C2.46359 10.66 3.79359 12.15 5.94359 12.15C7.29329 12.15 8.30702 11.6495 8.83718 10.41C8.83928 10.4051 8.84136 10.4002 8.84345 10.3952C8.84988 10.38 8.85624 10.3647 8.86252 10.3493C8.91457 10.2215 8.96165 10.086 9.00359 9.94276C9.04105 9.81483 9.07442 9.68064 9.10359 9.54001C9.12359 9.47001 9.07359 9.41001 9.00359 9.41001H7.74359ZM9.82226 11.87C9.82226 11.94 9.88227 12 9.95226 12H12.9923C14.3323 12 15.6223 11.4 15.6223 9.88001C15.6223 9.50465 15.5129 9.16494 15.292 8.89099C15.0843 8.63341 14.7778 8.43396 14.3708 8.3177C14.3665 8.31648 14.3622 8.31527 14.3579 8.31407C14.3139 8.30174 14.2687 8.29037 14.2223 8.28001C14.2454 8.27309 14.2683 8.26594 14.2909 8.25856C14.3557 8.23737 14.4181 8.21428 14.4779 8.18922C14.8083 8.05078 15.0604 7.85235 15.2224 7.58193C15.3598 7.35231 15.4323 7.07078 15.4323 6.73001C15.4323 5.52001 14.3723 5.00001 12.9423 5.00001H9.95226C9.88227 5.00001 9.82226 5.06001 9.82226 5.13001L9.91226 8.50001L9.82226 11.87ZM7.58464 8.42163C7.1127 8.36446 6.71272 8.01964 6.59345 7.54254L6.59206 7.53697C6.53216 7.29139 6.44314 7.18618 6.38076 7.13684C6.31939 7.08831 6.19069 7.02001 5.91359 7.02001C5.59315 7.02001 5.43359 7.12593 5.32056 7.279C5.17594 7.47487 5.03359 7.86092 5.03359 8.52001C5.03359 9.17335 5.1785 9.54545 5.31892 9.73046C5.43013 9.877 5.58949 9.98001 5.90359 9.98001C6.20769 9.98001 6.3243 9.90429 6.37572 9.85892C6.43803 9.80394 6.53886 9.67217 6.61088 9.35276C6.70712 8.81241 7.14389 8.48567 7.58464 8.42163ZM8.852 4.87238C8.73531 4.76279 8.61112 4.66139 8.47947 4.56835C7.71354 4.02707 6.80931 3.85001 5.93359 3.85001C4.64033 3.85001 3.49618 4.30061 2.67927 5.16826C1.86817 6.02974 1.46359 7.21226 1.46359 8.53001C1.46359 9.80248 1.86341 10.9681 2.66918 11.8242C3.48166 12.6873 4.62712 13.15 5.94359 13.15C6.90229 13.15 7.83582 12.9349 8.60203 12.3398C8.68895 12.2722 8.77214 12.2011 8.85168 12.1263C8.96833 12.6259 9.41808 13 9.95226 13H12.9923C13.7902 13 14.6694 12.8246 15.3798 12.3316C16.137 11.8062 16.6223 10.9704 16.6223 9.88001C16.6223 9.28981 16.4426 8.70679 16.0413 8.22779C16.0328 8.21766 16.0242 8.20761 16.0156 8.19765C16.3059 7.76641 16.4323 7.26229 16.4323 6.73001C16.4323 5.77561 15.9861 5.02755 15.2589 4.56662C14.591 4.14335 13.7533 4.00001 12.9423 4.00001H9.95226C9.41855 4.00001 8.96913 4.37348 8.852 4.87238ZM13.8806 9.22834C13.6767 8.97891 13.3385 8.88001 12.9623 8.88001H11.3323L11.4123 10.94H12.9623C13.5923 10.94 14.0823 10.7 14.0823 9.88001C14.0823 9.59641 14.0074 9.38332 13.8806 9.22834ZM12.3742 9.94001H12.9623C13.0109 9.94001 13.05 9.9376 13.0807 9.93422C13.0815 9.92057 13.0821 9.90505 13.0822 9.88754C13.0513 9.88318 13.0115 9.88001 12.9623 9.88001H12.3719L12.3742 9.94001ZM13.8363 7.35164C13.8861 7.23779 13.9123 7.10372 13.9123 6.95001C13.9123 6.33001 13.4823 6.06001 12.9623 6.06001H11.4123L11.3323 7.82001H12.9623C13.3932 7.82001 13.7014 7.65999 13.8363 7.35164Z" fill="black"/>
</svg>
